<mxfile host="app.diagrams.net" modified="2020-11-18T19:43:43.280Z" agent="5.0 (Windows NT 10.0; Win64; x64) AppleWebKit/537.36 (KHTML, like Gecko) Chrome/86.0.4240.77 YaBrowser/20.11.0.817 Yowser/2.5 Safari/537.36" etag="Xg-ufUVKN9vh1KyWY0Fq" version="13.7.3" type="github">
  <diagram id="Q_shHhQJ_JUYOmZTP732" name="Page-1">
    <mxGraphModel dx="923" dy="784" grid="1" gridSize="10" guides="1" tooltips="1" connect="1" arrows="1" fold="1" page="1" pageScale="1" pageWidth="827" pageHeight="1169" math="0" shadow="0">
      <root>
        <mxCell id="0" />
        <mxCell id="1" parent="0" />
        <mxCell id="YfLY3mEhO1hvarU5qHTa-9" style="edgeStyle=orthogonalEdgeStyle;rounded=0;orthogonalLoop=1;jettySize=auto;html=1;entryX=0.5;entryY=0;entryDx=0;entryDy=0;" edge="1" parent="1" source="YfLY3mEhO1hvarU5qHTa-1" target="YfLY3mEhO1hvarU5qHTa-4">
          <mxGeometry relative="1" as="geometry" />
        </mxCell>
        <mxCell id="YfLY3mEhO1hvarU5qHTa-1" value="Web" style="rounded=0;whiteSpace=wrap;html=1;" vertex="1" parent="1">
          <mxGeometry x="90" y="80" width="120" height="60" as="geometry" />
        </mxCell>
        <mxCell id="YfLY3mEhO1hvarU5qHTa-10" style="edgeStyle=orthogonalEdgeStyle;rounded=0;orthogonalLoop=1;jettySize=auto;html=1;exitX=0.5;exitY=0;exitDx=0;exitDy=0;" edge="1" parent="1" source="YfLY3mEhO1hvarU5qHTa-2" target="YfLY3mEhO1hvarU5qHTa-3">
          <mxGeometry relative="1" as="geometry" />
        </mxCell>
        <mxCell id="YfLY3mEhO1hvarU5qHTa-2" value="Models" style="rounded=0;whiteSpace=wrap;html=1;" vertex="1" parent="1">
          <mxGeometry x="450" y="240" width="120" height="60" as="geometry" />
        </mxCell>
        <mxCell id="YfLY3mEhO1hvarU5qHTa-3" value="Database" style="rounded=0;whiteSpace=wrap;html=1;" vertex="1" parent="1">
          <mxGeometry x="570" y="80" width="120" height="60" as="geometry" />
        </mxCell>
        <mxCell id="YfLY3mEhO1hvarU5qHTa-7" style="edgeStyle=orthogonalEdgeStyle;rounded=0;orthogonalLoop=1;jettySize=auto;html=1;entryX=0;entryY=0.5;entryDx=0;entryDy=0;" edge="1" parent="1" source="YfLY3mEhO1hvarU5qHTa-4" target="YfLY3mEhO1hvarU5qHTa-2">
          <mxGeometry relative="1" as="geometry" />
        </mxCell>
        <mxCell id="YfLY3mEhO1hvarU5qHTa-4" value="Services" style="rounded=0;whiteSpace=wrap;html=1;" vertex="1" parent="1">
          <mxGeometry x="210" y="240" width="120" height="60" as="geometry" />
        </mxCell>
        <mxCell id="YfLY3mEhO1hvarU5qHTa-11" value=".NET Core" style="text;html=1;strokeColor=none;fillColor=none;align=center;verticalAlign=middle;whiteSpace=wrap;rounded=0;fontSize=20;" vertex="1" parent="1">
          <mxGeometry x="290" y="40" width="140" height="40" as="geometry" />
        </mxCell>
        <mxCell id="YfLY3mEhO1hvarU5qHTa-12" style="edgeStyle=orthogonalEdgeStyle;rounded=0;orthogonalLoop=1;jettySize=auto;html=1;entryX=0.5;entryY=0;entryDx=0;entryDy=0;" edge="1" parent="1" source="YfLY3mEhO1hvarU5qHTa-13" target="YfLY3mEhO1hvarU5qHTa-18">
          <mxGeometry relative="1" as="geometry" />
        </mxCell>
        <mxCell id="YfLY3mEhO1hvarU5qHTa-20" style="edgeStyle=orthogonalEdgeStyle;rounded=0;orthogonalLoop=1;jettySize=auto;html=1;exitX=1;exitY=0.5;exitDx=0;exitDy=0;entryX=0.25;entryY=0;entryDx=0;entryDy=0;fontSize=20;" edge="1" parent="1" source="YfLY3mEhO1hvarU5qHTa-13" target="YfLY3mEhO1hvarU5qHTa-15">
          <mxGeometry relative="1" as="geometry" />
        </mxCell>
        <mxCell id="YfLY3mEhO1hvarU5qHTa-13" value="Web" style="rounded=0;whiteSpace=wrap;html=1;" vertex="1" parent="1">
          <mxGeometry x="100" y="400" width="120" height="60" as="geometry" />
        </mxCell>
        <mxCell id="YfLY3mEhO1hvarU5qHTa-15" value="Models" style="rounded=0;whiteSpace=wrap;html=1;" vertex="1" parent="1">
          <mxGeometry x="460" y="560" width="120" height="60" as="geometry" />
        </mxCell>
        <mxCell id="YfLY3mEhO1hvarU5qHTa-16" value="Database" style="rounded=0;whiteSpace=wrap;html=1;" vertex="1" parent="1">
          <mxGeometry x="580" y="400" width="120" height="60" as="geometry" />
        </mxCell>
        <mxCell id="YfLY3mEhO1hvarU5qHTa-17" style="edgeStyle=orthogonalEdgeStyle;rounded=0;orthogonalLoop=1;jettySize=auto;html=1;entryX=0;entryY=0.5;entryDx=0;entryDy=0;" edge="1" parent="1" source="YfLY3mEhO1hvarU5qHTa-18" target="YfLY3mEhO1hvarU5qHTa-15">
          <mxGeometry relative="1" as="geometry" />
        </mxCell>
        <mxCell id="YfLY3mEhO1hvarU5qHTa-21" style="edgeStyle=orthogonalEdgeStyle;rounded=0;orthogonalLoop=1;jettySize=auto;html=1;exitX=0.5;exitY=1;exitDx=0;exitDy=0;entryX=0.75;entryY=1;entryDx=0;entryDy=0;fontSize=20;" edge="1" parent="1" source="YfLY3mEhO1hvarU5qHTa-18" target="YfLY3mEhO1hvarU5qHTa-16">
          <mxGeometry relative="1" as="geometry">
            <Array as="points">
              <mxPoint x="280" y="660" />
              <mxPoint x="670" y="660" />
            </Array>
          </mxGeometry>
        </mxCell>
        <mxCell id="YfLY3mEhO1hvarU5qHTa-18" value="Services" style="rounded=0;whiteSpace=wrap;html=1;" vertex="1" parent="1">
          <mxGeometry x="220" y="560" width="120" height="60" as="geometry" />
        </mxCell>
        <mxCell id="YfLY3mEhO1hvarU5qHTa-19" value=".NET Framework" style="text;html=1;strokeColor=none;fillColor=none;align=center;verticalAlign=middle;whiteSpace=wrap;rounded=0;fontSize=20;" vertex="1" parent="1">
          <mxGeometry x="300" y="360" width="160" height="40" as="geometry" />
        </mxCell>
      </root>
    </mxGraphModel>
  </diagram>
</mxfile>
